<!-- <svg width="20" height="20" viewBox="0 0 20 20" fill="none" xmlns="http://www.w3.org/2000/svg">
<path d="M15.8077 6.69162C15.9249 6.80883 16.0842 6.875 16.25 6.875C16.4158 6.875 16.5747 6.80915 16.6919 6.69194C16.8092 6.57473 16.875 6.41576 16.875 6.25C16.875 6.08424 16.8092 5.92527 16.6919 5.80806L14.1919 3.30806C14.0747 3.19085 13.9158 3.125 13.75 3.125C13.5842 3.125 13.4253 3.19085 13.3081 3.30806L10.8081 5.80806C10.6908 5.92527 10.625 6.08424 10.625 6.25C10.625 6.26001 10.6252 6.27002 10.6257 6.28002C10.6332 6.43522 10.6982 6.58207 10.8081 6.69194C10.9253 6.80915 11.0842 6.875 11.25 6.875C11.4158 6.875 11.5747 6.80915 11.6919 6.69194L13.75 4.63388L15.8077 6.69162Z" fill="#1C1C1C"/>
<path d="M14.375 16.25V3.75C14.375 3.40482 14.0952 3.125 13.75 3.125C13.4048 3.125 13.125 3.40482 13.125 3.75V16.25C13.125 16.5952 13.4048 16.875 13.75 16.875C14.0952 16.875 14.375 16.5952 14.375 16.25Z" fill="#1C1C1C"/>
</svg> -->
<svg width="20" height="20" viewBox="10.625 3.125 6.25 13.75" fill="none" xmlns="http://www.w3.org/2000/svg">
  <path d="M15.8077 6.69162C15.9249 6.80883 16.0842 6.875 16.25 6.875C16.4158 6.875 16.5747 6.80915 16.6919 6.69194C16.8092 6.57473 16.875 6.41576 16.875 6.25C16.875 6.08424 16.8092 5.92527 16.6919 5.80806L14.1919 3.30806C14.0747 3.19085 13.9158 3.125 13.75 3.125C13.5842 3.125 13.4253 3.19085 13.3081 3.30806L10.8081 5.80806C10.6908 5.92527 10.625 6.08424 10.625 6.25C10.625 6.26001 10.6252 6.27002 10.6257 6.28002C10.6332 6.43522 10.6982 6.58207 10.8081 6.69194C10.9253 6.80915 11.0842 6.875 11.25 6.875C11.4158 6.875 11.5747 6.80915 11.6919 6.69194L13.75 4.63388L15.8077 6.69162Z" fill="#1C1C1C"/>
  <path d="M14.375 16.25V3.75C14.375 3.40482 14.0952 3.125 13.75 3.125C13.4048 3.125 13.125 3.40482 13.125 3.75V16.25C13.125 16.5952 13.4048 16.875 13.75 16.875C14.0952 16.875 14.375 16.5952 14.375 16.25Z" fill="#1C1C1C"/>
</svg>


