<!-- <svg width="20" height="20" viewBox="0 0 20 20" fill="none" xmlns="http://www.w3.org/2000/svg">
<path d="M4.19194 13.3081C4.07473 13.1908 3.91576 13.125 3.75 13.125C3.58424 13.125 3.42527 13.1908 3.30806 13.3081C3.19085 13.4253 3.125 13.5842 3.125 13.75C3.125 13.9158 3.19085 14.0747 3.30806 14.1919L5.80806 16.6919C5.92527 16.8092 6.08424 16.875 6.25 16.875C6.41576 16.875 6.57473 16.8092 6.69194 16.6919L9.19171 14.1922C9.30892 14.075 9.375 13.9158 9.375 13.75C9.375 13.5842 9.30915 13.4253 9.19194 13.3081C9.07473 13.1908 8.91576 13.125 8.75 13.125C8.58424 13.125 8.42527 13.1908 8.30806 13.3081L6.25 15.3661L4.19194 13.3081Z" fill="white"/>
<path d="M5.625 3.75V16.25C5.625 16.5952 5.90482 16.875 6.25 16.875C6.59518 16.875 6.875 16.5952 6.875 16.25V3.75C6.875 3.40482 6.59518 3.125 6.25 3.125C5.90482 3.125 5.625 3.40482 5.625 3.75Z" fill="white"/>
</svg> -->
<svg width="20" height="20" viewBox="3.125 3.125 6.25 13.75" fill="none" xmlns="http://www.w3.org/2000/svg">
  <path d="M4.19194 13.3081C4.07473 13.1908 3.91576 13.125 3.75 13.125C3.58424 13.125 3.42527 13.1908 3.30806 13.3081C3.19085 13.4253 3.125 13.5842 3.125 13.75C3.125 13.9158 3.19085 14.0747 3.30806 14.1919L5.80806 16.6919C5.92527 16.8092 6.08424 16.875 6.25 16.875C6.41576 16.875 6.57473 16.8092 6.69194 16.6919L9.19171 14.1922C9.30892 14.075 9.375 13.9158 9.375 13.75C9.375 13.5842 9.30915 13.4253 9.19194 13.3081C9.07473 13.1908 8.91576 13.125 8.75 13.125C8.58424 13.125 8.42527 13.1908 8.30806 13.3081L6.25 15.3661L4.19194 13.3081Z" fill="white"/>
  <path d="M5.625 3.75V16.25C5.625 16.5952 5.90482 16.875 6.25 16.875C6.59518 16.875 6.875 16.5952 6.875 16.25V3.75C6.875 3.40482 6.59518 3.125 6.25 3.125C5.90482 3.125 5.625 3.40482 5.625 3.75Z" fill="white"/>
</svg>
